<svg width="134" height="37" viewBox="0 0 134 37" fill="none" xmlns="http://www.w3.org/2000/svg">
<path d="M8.50437 0.465332C10.2014 0.465332 11.4279 1.02151 12.312 1.62046L13.7952 0.465332V5.44237C12.4832 3.36029 10.943 1.5349 8.29046 1.5349C5.63794 1.5349 2.94264 3.97351 2.94264 7.69559C2.94264 12.0737 5.99446 14.4838 9.21742 14.4838C11.3423 14.4838 12.8825 13.6852 14.2372 12.3161C13.4814 14.3982 11.2282 16.1665 8.29046 16.1665C4.35446 16.1665 0.846291 13.2716 0.846291 8.67959C0.83203 3.74533 4.75377 0.465332 8.50437 0.465332Z" fill="white"/>
<path d="M23.8206 16.1665C19.7277 16.1665 15.9058 12.858 15.9058 8.32307C15.9058 3.78811 19.7277 0.465332 23.8206 0.465332C27.9134 0.465332 31.7354 3.77385 31.7354 8.30881C31.7354 12.8438 27.9134 16.1523 23.8206 16.1523M23.8206 15.1398C26.6014 15.1398 29.3538 12.3161 29.3538 8.30881C29.3538 4.3015 26.6157 1.50638 23.8206 1.50638C21.0254 1.50638 18.2874 4.31577 18.2874 8.30881C18.2874 12.3018 21.0254 15.1398 23.8206 15.1398Z" fill="white"/>
<path d="M33.1472 14.9686H35.4289V3.2747L33.1757 0.693481H35.871L45.9962 12.5015V1.66322H43.7145V0.693481H49.4188V1.66322H47.1371V16.6799L36.5698 4.5867V14.9686H38.8515V15.9526H33.1472V14.9686Z" fill="white"/>
<path d="M58.5458 0.465332C60.2428 0.465332 61.4693 1.02151 62.3534 1.62046L63.8366 0.465332V5.44237C62.5388 3.36029 60.9844 1.5349 58.3319 1.5349C55.6793 1.5349 52.984 3.97351 52.984 7.69559C52.984 12.0737 56.0359 14.4838 59.2588 14.4838C61.3837 14.4838 62.9239 13.6852 64.2786 12.3161C63.5228 14.3982 61.2696 16.1665 58.3319 16.1665C54.3959 16.1665 50.8877 13.2716 50.8877 8.67959C50.8877 3.74533 54.7952 0.479593 58.56 0.479593" fill="white"/>
<path d="M75.0884 11.0184L73.3343 8.62254H70.0828V14.9686H75.6303L78.7677 11.2323L77.8407 15.9526H65.6905V14.9686H67.958V1.66324H65.6905V0.693497H76.272L77.47 0.0517578V4.74358L75.1882 1.66324H70.0828V7.6528H73.3343L75.0884 5.2855V11.0184Z" fill="white"/>
<path d="M92.5436 5.11435C92.5436 7.80965 89.8911 9.25 87.5095 9.25L85.8125 8.43713C89.0355 8.43713 90.3902 7.13939 90.3902 5.05731C90.3902 2.69 88.6504 1.67748 86.1975 1.67748H84.5575V14.9829H87.3812V15.9526H80.1509V14.9829H82.4327V1.66322H80.1509V0.693481H86.2118C89.9196 0.693481 92.5579 2.10531 92.5579 5.11435" fill="white"/>
<path d="M94.1837 0.0517578L95.3673 0.693497H107.218L108.416 0.0517578V4.9575L106.134 1.66324H102.355V14.9686H104.851V15.9526H97.7346V14.9686H100.23V1.66324H96.4511L94.1837 4.9575V0.0517578Z" fill="white"/>
<path d="M9.38857 20.4448C10.8717 22.1418 10.0303 24.338 8.70404 25.4646H7.80561C8.88943 24.5376 9.0463 22.9404 7.97674 21.6997C6.76457 20.3022 5.43831 20.5446 4.48283 21.386L3.48457 22.2274L15.0501 35.5613H12.3263L9.80213 32.6663C9.48839 33.3509 9.07483 33.9498 8.50439 34.4632C6.33674 36.3171 3.12805 36.1032 1.27413 33.9783C-0.565518 31.8535 -0.408648 28.5592 1.71622 26.7053C2.32944 26.1919 2.97118 25.8496 3.6557 25.65L1.37396 23.0403L3.94092 20.7585C6.10857 18.9046 8.14787 19.0044 9.3743 20.4448M2.98544 32.3526C4.75378 34.4062 6.99274 34.5488 8.46161 33.2795C8.81813 32.9515 9.07483 32.5237 9.27448 32.0816L4.14057 26.2062C3.68422 26.3202 3.21361 26.4914 2.84283 26.8194C1.103 28.3453 1.18857 30.3133 2.97118 32.3526" fill="white"/>
<path d="M29.4393 24.6946C29.4393 27.3899 26.7868 28.8302 24.4053 28.8302L22.7082 28.0174C25.9312 28.0174 27.286 26.7196 27.286 24.6375C27.286 22.2702 25.5461 21.2577 23.0933 21.2577H21.4533V34.5631H24.2912V35.5328H17.0609V34.5631H19.3427V21.2577H17.0609V20.288H23.1218C26.8296 20.288 29.4679 21.6998 29.4679 24.7088" fill="white"/>
<path d="M42.5736 34.5488H44.4132V35.5185H37.5823V34.5488H40.3061L38.3809 29.7571H33.1186L31.1792 34.5488H33.903V35.5185H28.1986V34.5488H30.0383L35.2578 21.9422L34.6018 20.2594H36.7694L42.6021 34.5345L42.5736 34.5488ZM37.9816 28.7731L35.7712 23.2257L33.5179 28.7731H37.9816Z" fill="white"/>
<path d="M45.5969 35.5185V34.5488H47.8787V21.2434H45.5969V20.2737H51.6293C55.2943 20.2737 57.9754 21.4288 57.9754 24.1812C57.9754 26.3488 56.1214 27.6465 53.7541 28.1172L60.471 35.5185H57.7329L51.4581 28.3168H50.0035V34.5488H52.2853V35.5185H45.6112H45.5969ZM51.615 27.4041C54.0251 27.4041 55.7507 26.3916 55.7507 24.2667C55.7507 22.1419 54.0251 21.2434 51.615 21.2434H50.0035V27.4041H51.615Z" fill="white"/>
<path d="M60.5994 19.632L61.7973 20.2737H73.6481L74.846 19.632V24.5377L72.5642 21.2434H68.7851V34.5488H71.2807V35.5186H64.1646V34.5488H66.6602V21.2434H62.8811L60.5994 24.5377V19.632Z" fill="white"/>
<path d="M76.1152 34.5488H78.3969V22.8549L76.1437 20.2737H78.839L88.9642 32.0817V21.2434H86.6825V20.2737H92.3868V21.2434H90.1193V36.2601L79.552 24.1669V34.5488H81.8195V35.5185H76.1152V34.5488Z" fill="white"/>
<path d="M102.983 30.5986L101.229 28.2027H97.9771V34.5488H103.525L106.662 30.8125L105.735 35.5186H93.5847V34.5488H95.8522V21.2434H93.5847V20.2737H104.166L105.364 19.632V24.3238L103.082 21.2434H97.9771V27.233H101.229L102.983 24.8657V30.5986Z" fill="white"/>
<path d="M108.031 35.5185V34.5488H110.313V21.2434H108.031V20.2737H114.063C117.728 20.2737 120.409 21.4288 120.409 24.1812C120.409 26.3488 118.555 27.6465 116.188 28.1172L122.905 35.5185H120.167L113.892 28.3168H112.438V34.5488H114.719V35.5185H108.045H108.031ZM114.049 27.4041C116.459 27.4041 118.185 26.3916 118.185 24.2667C118.185 22.1419 116.459 21.2434 114.049 21.2434H112.438V27.4041H114.049Z" fill="white"/>
<path d="M126.214 23.5394C126.214 27.0333 134 26.306 134 30.9835C134 33.7929 131.547 35.7324 128.51 35.7324C126.898 35.7324 125.101 35.0907 124.046 34.1209V30.4274C125.158 33.0799 126.812 34.6486 128.994 34.6486C130.649 34.6486 132.018 33.6503 132.018 31.8677C132.018 27.8034 124.431 29.0155 124.431 24.2809C124.431 21.9849 126.271 20.0312 128.823 20.0312C130.107 20.0312 131.276 20.5588 131.889 21.1435L133.415 19.9884V24.9654C132.26 22.8834 130.806 21.1008 128.723 21.1008C127.226 21.1008 126.185 22.1133 126.185 23.5394" fill="white"/>
</svg>
